<svg xmlns="http://www.w3.org/2000/svg" xmlns:xlink="http://www.w3.org/1999/xlink" width="640" height="480" viewBox="0 0 640 480"><defs><style>.cls-1,.cls-2,.cls-3{fill:#462b04;}.cls-1{stroke:#000;stroke-miterlimit:10;stroke-width:0.75px;}.cls-2{font-size:40px;font-family:Halant-Medium, Halant;}.cls-3{font-size:16px;font-family:Halant-Regular, Halant;}.cls-4{fill:#fba224;}.cls-5,.cls-9{opacity:0.84;}.cls-5{fill:url(#Summer);}.cls-6,.cls-7{opacity:0.85;}.cls-6{fill:url(#Summer-2);}.cls-7{fill:url(#Summer-3);}.cls-10,.cls-8,.cls-9{fill:#f78f05;fill-opacity:0.8;}.cls-8{opacity:0.75;}.cls-10{opacity:0.86;}</style><radialGradient id="Summer" cx="322.5" cy="110" r="49.79" gradientUnits="userSpaceOnUse"><stop offset="0" stop-color="#fff"/><stop offset="0.09" stop-color="#ffedd8"/><stop offset="0.21" stop-color="#ffd5a7"/><stop offset="0.33" stop-color="#ffc17d"/><stop offset="0.46" stop-color="#ffb05b"/><stop offset="0.59" stop-color="#ffa340"/><stop offset="0.72" stop-color="#ff9a2d"/><stop offset="0.86" stop-color="#ff9522"/><stop offset="1" stop-color="#ff931e"/></radialGradient><radialGradient id="Summer-2" cx="273.5" cy="133" r="45.61" gradientTransform="translate(203.89 -163.05) rotate(50.84)" xlink:href="#Summer"/><radialGradient id="Summer-3" cx="370.5" cy="132" r="45.54" gradientTransform="translate(170.98 -206.95) rotate(39.91)" xlink:href="#Summer"/></defs><title>Artboard 2</title><g id="Layer_7" data-name="Layer 7"><line class="cls-1" x1="111.96" y1="194" x2="521.5" y2="193.5"/><text class="cls-2" transform="translate(175.81 249.06)">INDIAN GARDEN</text><text class="cls-3" transform="translate(322.82 268.03)">FLAVOURS OF INDIA</text><path class="cls-4" d="M171,220s-25-3-39,14c0,0,10,19,39,14,0,0-13-5-17-14C154,234,157,226,171,220Z"/><path class="cls-4" d="M473,220s25-3,39,14c0,0-10,19-39,14,0,0,13-5,17-14C490,234,487,226,473,220Z"/><ellipse class="cls-4" cx="285.73" cy="170.55" rx="13.44" ry="37.44" transform="translate(102.97 448.63) rotate(-87.52)"/><ellipse class="cls-5" cx="322.5" cy="110" rx="32" ry="62.73"/><ellipse class="cls-6" cx="273.5" cy="133" rx="32" ry="62.73" transform="translate(-2.35 261.06) rotate(-50.84)"/><ellipse class="cls-7" cx="370.5" cy="132" rx="62.73" ry="32" transform="translate(1.61 268.44) rotate(-39.91)"/><ellipse class="cls-8" cx="299.75" cy="115" rx="26.75" ry="62.73" transform="translate(-20.69 134.91) rotate(-24.54)"/><ellipse class="cls-9" cx="347.75" cy="115" rx="62.73" ry="26.75" transform="translate(100.57 385.29) rotate(-65.86)"/><ellipse class="cls-9" cx="265.63" cy="151.65" rx="17.56" ry="62.62" transform="translate(32.83 350.04) rotate(-70.16)"/><ellipse class="cls-4" cx="358.73" cy="171.55" rx="37.44" ry="13.44" transform="matrix(1, -0.04, 0.04, 1, -5.99, 13.13)"/><ellipse class="cls-10" cx="381.63" cy="150.65" rx="62.62" ry="17.56" transform="translate(-28.58 142.93) rotate(-20.46)"/><circle class="cls-9" cx="322.5" cy="39.5" r="4.5"/><circle class="cls-9" cx="322.5" cy="31.5" r="2.5"/></g></svg>