<svg xmlns="http://www.w3.org/2000/svg" xmlns:xlink="http://www.w3.org/1999/xlink" width="640" height="480" viewBox="0 0 640 480"><defs><style>.cls-1{fill:#fba224;}.cls-2,.cls-6{opacity:0.84;}.cls-2{fill:url(#Summer);}.cls-3,.cls-4{opacity:0.85;}.cls-3{fill:url(#Summer-2);}.cls-4{fill:url(#Summer-3);}.cls-5,.cls-6,.cls-7{fill:#f78f05;fill-opacity:0.8;}.cls-5{opacity:0.75;}.cls-7{opacity:0.86;}.cls-10,.cls-8,.cls-9{fill:#462b04;}.cls-8{stroke:#000;stroke-miterlimit:10;stroke-width:0.75px;}.cls-9{font-size:40px;font-family:Halant-Medium, Halant;}.cls-10{font-size:16px;font-family:Halant-Regular, Halant;}</style><radialGradient id="Summer" cx="130.5" cy="111" r="49.79" gradientUnits="userSpaceOnUse"><stop offset="0" stop-color="#fff"/><stop offset="0.09" stop-color="#ffedd8"/><stop offset="0.21" stop-color="#ffd5a7"/><stop offset="0.33" stop-color="#ffc17d"/><stop offset="0.46" stop-color="#ffb05b"/><stop offset="0.59" stop-color="#ffa340"/><stop offset="0.72" stop-color="#ff9a2d"/><stop offset="0.86" stop-color="#ff9522"/><stop offset="1" stop-color="#ff931e"/></radialGradient><radialGradient id="Summer-2" cx="81.5" cy="134" r="45.61" gradientTransform="translate(133.92 -13.82) rotate(50.84)" xlink:href="#Summer"/><radialGradient id="Summer-3" cx="178.5" cy="133" r="45.54" gradientTransform="translate(126.9 -83.54) rotate(39.91)" xlink:href="#Summer"/></defs><title>Artboard 3</title><g id="Layer_7" data-name="Layer 7"><ellipse class="cls-1" cx="93.73" cy="171.55" rx="13.44" ry="37.44" transform="translate(-81.72 257.77) rotate(-87.52)"/><ellipse class="cls-2" cx="130.5" cy="111" rx="32" ry="62.73"/><ellipse class="cls-3" cx="81.5" cy="134" rx="32" ry="62.73" transform="translate(-73.87 112.56) rotate(-50.84)"/><ellipse class="cls-4" cx="178.5" cy="133" rx="62.73" ry="32" transform="translate(-43.75 145.49) rotate(-39.91)"/><ellipse class="cls-5" cx="107.75" cy="116" rx="26.75" ry="62.73" transform="translate(-38.45 55.24) rotate(-24.54)"/><ellipse class="cls-6" cx="155.75" cy="116" rx="62.73" ry="26.75" transform="translate(-13.81 210.68) rotate(-65.86)"/><ellipse class="cls-6" cx="73.63" cy="152.65" rx="17.56" ry="62.62" transform="translate(-94.95 170.1) rotate(-70.16)"/><ellipse class="cls-1" cx="166.73" cy="172.55" rx="37.44" ry="13.44" transform="translate(-6.15 6.16) rotate(-2.08)"/><ellipse class="cls-7" cx="189.63" cy="151.65" rx="62.62" ry="17.56" transform="translate(-41.05 75.87) rotate(-20.46)"/><line class="cls-8" x1="56.5" y1="193.5" x2="589.5" y2="193.5"/><text class="cls-9" transform="translate(291.81 166.06)">INDIAN GARDEN</text><text class="cls-10" transform="translate(438.82 185.03)">FLAVOURS OF INDIA</text><path class="cls-1" d="M287,137s-25-3-39,14c0,0,10,19,39,14,0,0-13-5-17-14C270,151,273,143,287,137Z"/><path class="cls-1" d="M589,137s25-3,39,14c0,0-10,19-39,14,0,0,13-5,17-14C606,151,603,143,589,137Z"/><circle class="cls-6" cx="130.5" cy="40.5" r="4.5"/><circle class="cls-6" cx="130.5" cy="32.5" r="2.5"/></g></svg>