<svg xmlns="http://www.w3.org/2000/svg" xmlns:xlink="http://www.w3.org/1999/xlink" width="640" height="480" viewBox="0 0 640 480"><defs><style>.cls-1{fill:#fba224;}.cls-2,.cls-6,.cls-7{opacity:0.84;}.cls-2{fill:url(#Summer);}.cls-3,.cls-4{opacity:0.85;}.cls-3{fill:url(#Summer-2);}.cls-4{fill:url(#Summer-3);}.cls-5,.cls-6,.cls-7,.cls-8{fill:#f78f05;}.cls-5,.cls-6,.cls-8{fill-opacity:0.8;}.cls-5{opacity:0.75;}.cls-8{opacity:0.86;}.cls-9{fill:#462b04;stroke:#000;stroke-miterlimit:10;stroke-width:0.75px;}</style><radialGradient id="Summer" cx="313.5" cy="117" r="49.79" gradientUnits="userSpaceOnUse"><stop offset="0" stop-color="#fff"/><stop offset="0.09" stop-color="#ffedd8"/><stop offset="0.21" stop-color="#ffd5a7"/><stop offset="0.33" stop-color="#ffc17d"/><stop offset="0.46" stop-color="#ffb05b"/><stop offset="0.59" stop-color="#ffa340"/><stop offset="0.72" stop-color="#ff9a2d"/><stop offset="0.86" stop-color="#ff9522"/><stop offset="1" stop-color="#ff931e"/></radialGradient><radialGradient id="Summer-2" cx="264.5" cy="140" r="45.61" gradientTransform="translate(206 -153.49) rotate(50.84)" xlink:href="#Summer"/><radialGradient id="Summer-3" cx="361.5" cy="139" r="45.54" gradientTransform="translate(173.37 -199.54) rotate(39.91)" xlink:href="#Summer"/></defs><title>Artboard 5</title><g id="Layer_6" data-name="Layer 6"><ellipse class="cls-1" cx="276.73" cy="177.55" rx="13.44" ry="37.44" transform="translate(87.36 446.34) rotate(-87.52)"/><ellipse class="cls-2" cx="313.5" cy="117" rx="32" ry="62.73"/><ellipse class="cls-3" cx="264.5" cy="140" rx="32" ry="62.73" transform="translate(-11.09 256.66) rotate(-50.84)"/><ellipse class="cls-4" cx="361.5" cy="139" rx="62.73" ry="32" transform="translate(-4.98 264.29) rotate(-39.91)"/><ellipse class="cls-5" cx="290.75" cy="122" rx="26.75" ry="62.73" transform="translate(-24.41 131.8) rotate(-24.54)"/><ellipse class="cls-6" cx="338.75" cy="122" rx="62.73" ry="26.75" transform="translate(88.87 381.22) rotate(-65.86)"/><ellipse class="cls-6" cx="256.63" cy="158.65" rx="17.56" ry="62.62" transform="translate(20.3 346.2) rotate(-70.16)"/><ellipse class="cls-7" cx="349.73" cy="178.55" rx="37.44" ry="13.44" transform="translate(-6.25 12.81) rotate(-2.08)"/><ellipse class="cls-8" cx="372.63" cy="157.65" rx="62.62" ry="17.56" transform="translate(-31.6 140.23) rotate(-20.46)"/><line class="cls-9" x1="104.96" y1="199" x2="514.5" y2="198.5"/></g><g id="Layer_7" data-name="Layer 7"><circle class="cls-6" cx="313.5" cy="47.5" r="4.5"/><circle class="cls-6" cx="313.5" cy="39.5" r="2.5"/></g></svg>